<?xml version="1.0" standalone="no"?>
<!DOCTYPE svg PUBLIC "-//W3C//DTD SVG 20010904//EN"
 "http://www.w3.org/TR/2001/REC-SVG-20010904/DTD/svg10.dtd">
<svg version="1.0" xmlns="http://www.w3.org/2000/svg"
 width="900.000000pt" height="900.000000pt" viewBox="0 0 900.000000 900.000000"
 preserveAspectRatio="xMidYMid meet">
<metadata>
Created by potrace 1.14, written by Peter Selinger 2001-2017
</metadata>
<g transform="translate(0.000000,900.000000) scale(0.100000,-0.100000)"
fill="#000000" stroke="none">
<path d="M4266 7935 c-23 -22 -66 -102 -66 -124 0 -6 -5 -11 -12 -11 -6 0 -8
-3 -5 -7 10 -9 -39 -92 -73 -125 -40 -39 -133 -79 -175 -76 -51 3 -64 -15 -66
-95 -2 -78 -11 -92 -66 -101 -70 -12 -92 -27 -123 -81 -27 -47 -30 -61 -30
-137 0 -96 -10 -113 -69 -117 -19 -1 -41 -7 -48 -13 -15 -12 -17 -44 -3 -53 6
-4 8 -10 6 -14 -3 -4 11 -22 29 -40 l34 -33 -34 -34 -35 -33 33 -31 c17 -16
40 -33 51 -36 15 -5 17 -13 13 -48 -3 -22 -8 -48 -11 -57 -5 -10 10 -33 42
-67 47 -50 50 -55 48 -104 -1 -41 3 -53 19 -62 11 -6 32 -25 48 -43 41 -46 69
-61 124 -69 145 -19 217 -72 283 -207 17 -34 53 -82 85 -112 57 -55 109 -147
120 -215 3 -19 9 -51 14 -70 9 -42 7 -189 -3 -285 -9 -86 -28 -165 -67 -274
-16 -46 -29 -85 -29 -87 0 -2 -4 -4 -9 -4 -4 0 -24 30 -42 66 -19 36 -89 154
-156 262 l-121 196 19 27 c35 50 19 89 -36 89 -64 0 -118 -101 -89 -168 16
-40 47 -57 75 -42 11 7 22 10 23 8 29 -41 207 -339 245 -412 l53 -99 -18 -41
c-10 -22 -24 -48 -31 -57 -7 -8 -13 -21 -13 -27 0 -13 -95 -178 -118 -205 -14
-16 -18 -12 -52 60 -56 119 -106 191 -190 274 -130 129 -261 184 -465 196 -55
3 -101 6 -101 7 -1 0 -5 48 -9 106 -8 113 -10 133 -19 225 -8 79 -15 128 -26
194 -6 30 -10 56 -10 58 0 1 11 -2 25 -7 21 -8 27 -6 41 15 14 21 14 27 0 52
-18 36 -44 57 -85 71 -27 10 -40 9 -68 -5 -19 -9 -37 -22 -40 -29 -8 -22 16
-54 42 -54 26 0 31 -9 40 -89 4 -30 8 -61 10 -70 12 -64 20 -139 31 -291 13
-190 14 -183 -26 -191 -19 -4 -66 -7 -105 -5 -68 2 -120 22 -166 62 -22 19
-53 18 -72 -4 -18 -20 -16 -45 7 -91 9 -16 16 -56 17 -88 0 -57 16 -109 52
-168 31 -50 163 -140 322 -219 89 -45 172 -93 204 -121 61 -52 139 -106 221
-154 84 -48 93 -54 124 -79 l29 -23 -29 6 c-135 30 -412 119 -519 167 -273
122 -464 350 -516 613 -10 51 -12 237 -4 335 9 106 16 173 19 179 2 3 7 42 10
86 4 44 14 118 23 165 8 47 16 115 16 151 0 57 -3 71 -31 111 -32 47 -38 64
-46 138 -9 93 -50 131 -116 108 -8 -3 -46 -12 -83 -21 -94 -23 -107 -14 -123
83 -9 55 -16 76 -31 92 -14 15 -19 16 -42 3 -14 -7 -44 -29 -65 -49 -24 -21
-55 -37 -78 -41 -44 -8 -46 -13 -34 -107 4 -34 2 -38 -18 -38 -13 0 -43 6 -67
13 -56 17 -127 14 -167 -7 -20 -10 -46 -41 -71 -84 -47 -79 -88 -195 -72 -200
6 -2 11 -9 11 -16 0 -7 16 -18 36 -25 27 -10 34 -17 32 -34 -3 -20 -8 -22 -64
-19 -79 4 -105 -15 -128 -97 -16 -57 -19 -61 -56 -71 -69 -18 -85 -46 -106
-171 -19 -122 -30 -143 -111 -224 -95 -96 -106 -115 -98 -164 5 -29 13 -42 28
-48 34 -11 40 -11 64 4 27 16 43 17 43 2 0 -5 -14 -15 -30 -21 -33 -11 -46
-29 -55 -76 -7 -44 20 -73 74 -78 24 -2 65 -11 90 -20 25 -8 72 -17 105 -18
64 -3 61 0 106 -91 16 -31 36 -56 55 -65 17 -8 32 -16 34 -17 2 -1 -11 -16
-29 -33 -28 -26 -32 -35 -26 -63 8 -42 55 -109 86 -124 14 -6 43 -14 65 -17
22 -3 41 -5 42 -6 1 0 4 -13 8 -28 16 -77 90 -136 138 -111 12 7 43 36 70 65
50 55 101 81 173 88 22 2 50 8 61 15 26 14 73 69 73 85 0 20 37 63 60 69 17 4
25 -4 44 -41 31 -61 48 -74 121 -96 50 -14 361 -160 510 -239 22 -12 41 -20
43 -19 1 1 18 -4 38 -13 19 -8 93 -34 164 -57 72 -24 130 -46 130 -50 0 -11
-427 -15 -624 -6 -132 6 -186 -3 -247 -41 l-46 -28 -57 46 c-54 44 -56 48 -50
83 5 30 2 38 -16 48 -17 9 -27 7 -54 -9 -54 -34 -74 -111 -40 -159 21 -30 64
-26 80 6 10 19 14 21 25 10 8 -7 26 -23 42 -35 l28 -21 -28 -20 c-24 -16 -103
-50 -175 -75 -10 -4 -18 -15 -18 -25 0 -18 38 -62 54 -62 12 0 105 -68 151
-110 59 -54 164 -118 231 -140 124 -42 336 -59 484 -39 68 9 252 38 279 44 38
9 159 46 195 60 21 9 40 14 43 12 5 -5 -58 -101 -69 -105 -4 -2 -8 -9 -8 -17
0 -7 -30 -45 -66 -84 -70 -75 -132 -115 -198 -125 -22 -4 -48 -8 -60 -11 -12
-2 -37 -7 -56 -9 -19 -3 -69 -10 -110 -16 -41 -6 -88 -13 -105 -15 -16 -2 -52
-7 -80 -11 -66 -10 -282 -11 -320 -1 -16 4 -55 10 -86 13 -51 4 -60 2 -105
-28 -27 -18 -61 -38 -75 -44 -24 -11 -120 -11 -184 0 -16 3 -48 7 -70 11 -22
3 -73 14 -112 24 -51 13 -83 17 -109 11 -39 -9 -37 -7 -52 -34 -6 -13 -7 -29
-1 -43 10 -26 14 -126 7 -157 -3 -11 -16 -29 -30 -40 -22 -18 -26 -28 -24 -70
2 -61 30 -89 75 -76 16 4 32 6 34 4 7 -8 -4 -44 -12 -40 -14 9 -86 -40 -87
-59 -1 -11 -3 -24 -4 -30 -1 -5 -1 -14 0 -20 1 -5 4 -26 6 -45 16 -124 68
-249 118 -279 36 -22 67 -29 150 -35 82 -7 92 -27 56 -111 -11 -25 -19 -49
-18 -53 1 -4 -4 -35 -11 -70 -13 -60 -13 -64 8 -85 16 -18 21 -36 21 -83 0
-32 4 -64 8 -70 10 -16 60 -40 109 -53 37 -10 44 -16 53 -51 15 -56 55 -63
118 -22 13 8 43 17 66 18 40 3 45 1 75 -36 26 -32 38 -40 66 -40 18 0 35 4 37
10 2 5 21 12 43 15 30 4 48 0 70 -15 17 -11 39 -25 50 -32 11 -7 23 -17 27
-22 5 -8 71 -29 132 -41 10 -3 43 -11 73 -20 72 -21 128 -14 157 20 48 56 84
62 171 28 62 -24 113 -18 157 18 48 38 92 46 142 25 21 -9 47 -16 57 -16 39 0
177 164 184 219 2 17 -1 31 -7 31 -12 0 26 65 58 100 31 34 53 89 59 151 l6
53 -88 86 c-49 47 -110 119 -137 160 -59 87 -126 221 -126 249 0 11 -4 22 -9
25 -5 3 -12 27 -16 53 -5 27 -10 55 -11 63 -5 24 -5 213 0 236 2 12 7 38 10
59 4 20 8 40 11 44 2 4 6 18 9 32 13 68 120 296 155 332 19 19 54 29 76 21 16
-6 58 -76 70 -114 38 -129 170 -287 282 -340 42 -20 67 -39 78 -59 19 -37 105
-123 163 -163 83 -57 243 -123 435 -179 26 -7 47 -16 47 -20 0 -3 -22 -23 -49
-45 -57 -44 -74 -76 -65 -119 12 -57 9 -70 -21 -115 -25 -37 -30 -55 -29 -100
0 -67 44 -153 95 -188 31 -21 41 -22 183 -20 140 2 156 0 213 -23 69 -27 165
-104 231 -186 35 -43 50 -54 83 -59 46 -8 46 -7 54 -64 10 -75 55 -95 149 -68
47 13 98 48 141 95 30 34 30 34 80 22 28 -7 85 -13 127 -15 69 -2 81 0 120 25
52 33 65 61 71 156 6 88 46 185 77 185 11 0 20 -6 20 -14 0 -8 8 -28 17 -45
29 -49 78 -54 154 -15 55 27 98 31 199 19 64 -7 65 -7 87 22 20 28 34 67 48
135 3 15 23 48 45 73 75 86 54 181 -62 284 -28 25 -43 50 -58 98 -29 93 -26
124 16 188 57 85 46 164 -30 225 -69 55 -69 72 3 112 73 40 84 124 30 235 -25
51 -36 64 -65 73 -90 30 -199 -3 -521 -156 -74 -35 -108 -37 -167 -9 -28 13
-68 27 -89 30 -33 7 -41 4 -78 -30 -52 -47 -173 -102 -279 -126 l-35 -8 48 44
c26 25 54 45 61 45 52 0 54 139 3 172 -22 14 -56 8 -70 -13 -13 -18 -13 -26 1
-71 l16 -50 -40 -36 c-98 -90 -104 -93 -162 -87 -141 16 -432 132 -529 212
-13 10 -43 34 -69 53 -25 19 -71 69 -102 110 -31 41 -61 79 -66 83 -27 20 327
-19 474 -53 122 -28 193 -30 281 -8 87 22 434 190 448 217 14 25 -11 58 -52
66 -48 11 -123 44 -205 92 -101 59 -195 96 -299 118 -18 4 -33 8 -33 11 0 5
112 144 116 144 2 0 29 7 61 15 115 30 162 36 181 22 6 -5 12 -6 12 -3 0 4 22
-5 48 -19 40 -22 53 -36 76 -86 28 -62 56 -82 130 -94 40 -7 88 -26 104 -42 7
-7 37 -61 66 -120 73 -145 103 -175 158 -154 35 13 86 59 104 93 25 48 47 68
88 79 66 18 116 55 116 87 0 15 -5 33 -11 39 -17 17 7 120 35 157 14 17 39 47
56 66 35 39 51 72 55 110 1 14 3 28 3 32 1 4 19 16 40 27 33 17 82 78 72 91
-4 5 -18 67 -25 109 -8 48 -28 80 -60 96 -19 8 -36 19 -39 23 -8 13 45 124 90
190 44 64 48 77 45 142 -1 19 -2 46 -3 60 -1 31 10 167 16 197 3 13 1 25 -4
28 -10 6 -6 21 16 70 7 17 16 46 19 64 3 18 6 36 7 39 6 22 -19 53 -55 70
-129 59 -144 64 -191 63 -27 0 -56 5 -64 12 -9 7 -44 12 -86 12 l-70 0 -17 44
c-9 25 -26 53 -39 63 -26 21 -88 39 -145 43 -32 2 -50 12 -89 49 -51 48 -149
100 -228 121 -42 12 -51 11 -88 -7 -25 -13 -42 -29 -46 -44 -8 -33 -27 -30
-66 11 -57 60 -98 54 -174 -27 -80 -84 -93 -114 -95 -213 -1 -36 8 -69 30
-118 36 -77 36 -80 17 -96 -18 -15 -49 12 -69 61 -28 66 -71 80 -115 38 -33
-31 -57 -90 -49 -121 3 -10 2 -21 -3 -24 -11 -7 -3 -58 15 -101 20 -48 19 -64
-4 -64 -37 0 -46 -27 -48 -154 0 -67 -3 -134 -5 -151 -5 -48 10 -92 59 -163
43 -63 44 -68 39 -121 -2 -31 -8 -71 -12 -89 -4 -18 -1 -52 6 -77 15 -54 9
-83 -27 -121 -42 -43 -118 -104 -132 -104 -6 0 -11 -4 -11 -9 0 -9 -96 -58
-155 -79 -38 -14 -204 -63 -226 -67 -9 -2 -59 -12 -110 -23 -52 -11 -112 -23
-134 -26 -81 -12 -161 -29 -177 -38 -19 -9 -22 -1 -12 26 3 9 41 41 83 71 42
29 90 66 106 80 17 14 54 46 83 71 77 67 182 225 182 274 0 7 33 44 73 84 80
79 116 141 146 255 18 65 32 95 52 111 4 3 9 15 13 27 10 32 -22 37 -86 15
-29 -10 -73 -19 -98 -20 -25 -2 -52 -5 -62 -8 -22 -7 -25 0 -32 75 -4 36 -9
79 -11 95 -2 17 -6 56 -9 86 -3 30 -9 84 -12 120 -6 58 -5 63 9 52 21 -17 54
-7 62 19 9 26 -39 88 -83 109 l-31 15 78 81 c43 45 92 107 110 137 38 66 92
118 152 143 24 10 72 33 107 51 34 18 69 33 77 33 18 0 47 54 39 73 -5 14 98
127 116 127 6 0 10 11 10 24 0 13 7 29 15 36 20 17 19 37 -6 71 -21 30 -54 38
-89 19 -13 -7 -19 -6 -23 4 -3 8 -3 17 0 20 4 3 8 18 9 33 2 17 16 38 36 55
28 23 30 28 16 33 -16 6 -15 10 7 43 33 48 31 67 -5 82 -33 14 -39 40 -14 61
28 23 52 82 47 117 -5 32 -7 33 -39 27 -33 -6 -46 6 -23 20 7 5 2 16 -12 31
-17 18 -23 38 -25 77 -1 28 -2 58 -3 65 -2 18 -29 15 -48 -7 -36 -42 -53 7
-32 92 6 20 13 37 18 37 14 0 69 58 84 87 26 52 0 102 -65 125 -16 6 -28 14
-28 19 0 5 -6 9 -14 9 -7 0 -39 28 -70 61 -59 65 -59 64 -132 43 -17 -4 -23 0
-27 18 -4 13 -16 33 -27 46 -11 12 -17 22 -13 22 19 1 -65 32 -95 36 -18 1
-46 10 -62 18 -43 21 -101 14 -142 -17 l-35 -27 -26 33 c-14 19 -33 34 -42 34
-22 0 -50 -44 -52 -82 0 -16 -2 -38 -2 -47 -1 -27 -47 -23 -65 5 -8 12 -14 31
-12 42 4 25 -30 95 -47 95 -7 0 -30 -9 -51 -20 l-38 -21 -24 26 c-13 14 -28
24 -33 21 -18 -11 -41 6 -41 30 0 13 -3 25 -7 25 -39 7 -56 3 -77 -16z m601
-2248 c4 -4 16 -108 28 -237 4 -41 9 -82 10 -90 1 -8 6 -47 10 -86 l7 -71 -29
-7 c-99 -23 -267 -115 -381 -207 -83 -68 -82 -76 -2 96 92 198 103 223 135
295 69 160 88 197 128 258 37 55 45 62 67 57 14 -4 26 -7 27 -8z m2 -1014
c-31 -55 -61 -94 -116 -145 -60 -58 -153 -132 -153 -123 0 8 86 118 139 178
33 36 137 127 147 127 2 0 -6 -17 -17 -37z m625 -390 c-49 -61 -53 -64 -89
-59 -16 3 -60 6 -97 7 -38 1 -68 5 -68 9 0 5 65 26 230 74 25 8 49 14 54 15 4
0 -9 -20 -30 -46z m-264 -43 c0 -5 -5 -10 -11 -10 -5 0 -7 5 -4 10 3 6 8 10
11 10 2 0 4 -4 4 -10z m-345 -739 c248 -214 354 -341 371 -449 7 -42 3 -48
-55 -91 -20 -15 -26 -30 -32 -85 -3 -37 -11 -72 -15 -76 -9 -9 -104 16 -234
60 -99 34 -226 95 -281 136 -46 34 -50 39 -43 68 4 17 32 58 64 93 63 69 85
122 84 208 -1 68 -36 179 -78 245 -88 140 -88 140 21 54 54 -42 143 -116 198
-163z"/>
</g>
</svg>
